<mxfile host="app.diagrams.net" modified="2023-09-06T11:23:27.639Z" agent="Mozilla/5.0 (Windows NT 10.0; Win64; x64) AppleWebKit/537.36 (KHTML, like Gecko) Chrome/116.0.0.0 Safari/537.36" etag="Vl46kZRV9b_6cv-j82GD" version="21.6.9" type="device">
  <diagram id="R2lEEEUBdFMjLlhIrx00" name="Page-1">
    <mxGraphModel dx="1140" dy="2363" grid="1" gridSize="10" guides="1" tooltips="1" connect="1" arrows="0" fold="1" page="1" pageScale="1" pageWidth="850" pageHeight="1100" math="0" shadow="0" extFonts="Permanent Marker^https://fonts.googleapis.com/css?family=Permanent+Marker">
      <root>
        <mxCell id="0" />
        <mxCell id="1" parent="0" />
        <mxCell id="xPgT5PnDOvT7ALuy77IA-73" style="edgeStyle=orthogonalEdgeStyle;orthogonalLoop=1;jettySize=auto;html=1;exitX=0.5;exitY=0;exitDx=0;exitDy=0;endArrow=oval;endFill=1;" parent="1" source="xPgT5PnDOvT7ALuy77IA-1" target="xPgT5PnDOvT7ALuy77IA-71" edge="1">
          <mxGeometry relative="1" as="geometry" />
        </mxCell>
        <mxCell id="xPgT5PnDOvT7ALuy77IA-75" style="edgeStyle=orthogonalEdgeStyle;orthogonalLoop=1;jettySize=auto;html=1;exitX=0.75;exitY=0;exitDx=0;exitDy=0;entryX=0;entryY=1;entryDx=0;entryDy=0;endArrow=oval;endFill=0;" parent="1" source="xPgT5PnDOvT7ALuy77IA-1" target="xPgT5PnDOvT7ALuy77IA-74" edge="1">
          <mxGeometry relative="1" as="geometry" />
        </mxCell>
        <mxCell id="xPgT5PnDOvT7ALuy77IA-81" style="edgeStyle=orthogonalEdgeStyle;orthogonalLoop=1;jettySize=auto;html=1;exitX=0.25;exitY=0;exitDx=0;exitDy=0;endArrow=oval;endFill=0;" parent="1" source="xPgT5PnDOvT7ALuy77IA-1" edge="1">
          <mxGeometry relative="1" as="geometry">
            <mxPoint x="400" y="-50" as="targetPoint" />
          </mxGeometry>
        </mxCell>
        <mxCell id="ToJ0KxTHSLMnMgMTQ5sD-42" style="edgeStyle=orthogonalEdgeStyle;rounded=0;orthogonalLoop=1;jettySize=auto;html=1;exitX=1;exitY=0;exitDx=0;exitDy=0;endArrow=oval;endFill=0;entryX=0.15;entryY=0.667;entryDx=0;entryDy=0;entryPerimeter=0;" parent="1" source="xPgT5PnDOvT7ALuy77IA-1" target="xPgT5PnDOvT7ALuy77IA-85" edge="1">
          <mxGeometry relative="1" as="geometry">
            <mxPoint x="473" y="-30" as="targetPoint" />
          </mxGeometry>
        </mxCell>
        <mxCell id="ToJ0KxTHSLMnMgMTQ5sD-44" style="edgeStyle=orthogonalEdgeStyle;rounded=0;orthogonalLoop=1;jettySize=auto;html=1;exitX=0;exitY=0;exitDx=0;exitDy=0;entryX=0.917;entryY=0.667;entryDx=0;entryDy=0;entryPerimeter=0;endArrow=oval;endFill=0;" parent="1" source="xPgT5PnDOvT7ALuy77IA-1" target="xPgT5PnDOvT7ALuy77IA-90" edge="1">
          <mxGeometry relative="1" as="geometry" />
        </mxCell>
        <mxCell id="Sdq_FZ68KuRAV6YPq1nK-3" style="edgeStyle=orthogonalEdgeStyle;rounded=0;orthogonalLoop=1;jettySize=auto;html=1;exitX=0;exitY=0;exitDx=0;exitDy=0;entryX=1.014;entryY=0.667;entryDx=0;entryDy=0;entryPerimeter=0;endArrow=oval;endFill=0;" parent="1" source="xPgT5PnDOvT7ALuy77IA-1" target="Sdq_FZ68KuRAV6YPq1nK-1" edge="1">
          <mxGeometry relative="1" as="geometry" />
        </mxCell>
        <mxCell id="Sdq_FZ68KuRAV6YPq1nK-6" style="edgeStyle=orthogonalEdgeStyle;rounded=0;orthogonalLoop=1;jettySize=auto;html=1;exitX=1;exitY=0;exitDx=0;exitDy=0;endArrow=oval;endFill=0;" parent="1" source="xPgT5PnDOvT7ALuy77IA-1" target="Sdq_FZ68KuRAV6YPq1nK-5" edge="1">
          <mxGeometry relative="1" as="geometry" />
        </mxCell>
        <mxCell id="vuHLS6gSeuGzEU6-2qEv-60" style="edgeStyle=orthogonalEdgeStyle;rounded=1;orthogonalLoop=1;jettySize=auto;html=1;exitX=1;exitY=0.5;exitDx=0;exitDy=0;entryX=0.5;entryY=0;entryDx=0;entryDy=0;endArrow=none;endFill=0;" parent="1" source="xPgT5PnDOvT7ALuy77IA-1" target="xPgT5PnDOvT7ALuy77IA-36" edge="1">
          <mxGeometry relative="1" as="geometry" />
        </mxCell>
        <mxCell id="N8AgUgDqjwciJ4pxILRv-2" style="edgeStyle=orthogonalEdgeStyle;rounded=0;orthogonalLoop=1;jettySize=auto;html=1;exitX=0.75;exitY=1;exitDx=0;exitDy=0;entryX=0.5;entryY=0;entryDx=0;entryDy=0;endArrow=none;endFill=0;" parent="1" source="xPgT5PnDOvT7ALuy77IA-1" target="xPgT5PnDOvT7ALuy77IA-145" edge="1">
          <mxGeometry relative="1" as="geometry" />
        </mxCell>
        <mxCell id="N8AgUgDqjwciJ4pxILRv-5" style="edgeStyle=orthogonalEdgeStyle;rounded=0;orthogonalLoop=1;jettySize=auto;html=1;exitX=0;exitY=0.5;exitDx=0;exitDy=0;entryX=1;entryY=0.667;entryDx=0;entryDy=0;entryPerimeter=0;endArrow=oval;endFill=0;" parent="1" source="xPgT5PnDOvT7ALuy77IA-1" target="N8AgUgDqjwciJ4pxILRv-4" edge="1">
          <mxGeometry relative="1" as="geometry" />
        </mxCell>
        <mxCell id="7fZDvBcq9apVhcmprUjK-1" style="edgeStyle=orthogonalEdgeStyle;rounded=0;orthogonalLoop=1;jettySize=auto;html=1;exitX=0;exitY=1;exitDx=0;exitDy=0;entryX=0.5;entryY=0;entryDx=0;entryDy=0;endArrow=none;endFill=0;" parent="1" source="xPgT5PnDOvT7ALuy77IA-1" target="xPgT5PnDOvT7ALuy77IA-196" edge="1">
          <mxGeometry relative="1" as="geometry" />
        </mxCell>
        <mxCell id="dZsve7TQVurMC7eV8ZrO-27" style="edgeStyle=orthogonalEdgeStyle;rounded=1;orthogonalLoop=1;jettySize=auto;html=1;exitX=1;exitY=0.25;exitDx=0;exitDy=0;entryX=0.5;entryY=0;entryDx=0;entryDy=0;endArrow=none;endFill=0;" edge="1" parent="1" source="xPgT5PnDOvT7ALuy77IA-1" target="dZsve7TQVurMC7eV8ZrO-26">
          <mxGeometry relative="1" as="geometry" />
        </mxCell>
        <mxCell id="xPgT5PnDOvT7ALuy77IA-1" value="Utente" style="whiteSpace=wrap;html=1;align=center;rounded=0;" parent="1" vertex="1">
          <mxGeometry x="375" y="-10" width="100" height="40" as="geometry" />
        </mxCell>
        <mxCell id="xPgT5PnDOvT7ALuy77IA-44" style="edgeStyle=orthogonalEdgeStyle;orthogonalLoop=1;jettySize=auto;html=1;exitX=0.25;exitY=0;exitDx=0;exitDy=0;entryX=0.5;entryY=1;entryDx=0;entryDy=0;endArrow=none;endFill=0;" parent="1" source="xPgT5PnDOvT7ALuy77IA-33" target="xPgT5PnDOvT7ALuy77IA-35" edge="1">
          <mxGeometry relative="1" as="geometry" />
        </mxCell>
        <mxCell id="xPgT5PnDOvT7ALuy77IA-45" style="edgeStyle=orthogonalEdgeStyle;orthogonalLoop=1;jettySize=auto;html=1;exitX=0.75;exitY=0;exitDx=0;exitDy=0;entryX=0.5;entryY=1;entryDx=0;entryDy=0;endArrow=none;endFill=0;" parent="1" source="xPgT5PnDOvT7ALuy77IA-33" target="xPgT5PnDOvT7ALuy77IA-36" edge="1">
          <mxGeometry relative="1" as="geometry" />
        </mxCell>
        <mxCell id="xPgT5PnDOvT7ALuy77IA-54" style="edgeStyle=orthogonalEdgeStyle;orthogonalLoop=1;jettySize=auto;html=1;exitX=1;exitY=0.5;exitDx=0;exitDy=0;endArrow=oval;endFill=0;entryX=0;entryY=0.467;entryDx=0;entryDy=0;entryPerimeter=0;" parent="1" source="xPgT5PnDOvT7ALuy77IA-33" edge="1">
          <mxGeometry relative="1" as="geometry">
            <mxPoint x="810" y="419.01" as="targetPoint" />
          </mxGeometry>
        </mxCell>
        <mxCell id="xPgT5PnDOvT7ALuy77IA-65" style="edgeStyle=orthogonalEdgeStyle;orthogonalLoop=1;jettySize=auto;html=1;exitX=1;exitY=0;exitDx=0;exitDy=0;entryX=0.025;entryY=-0.167;entryDx=0;entryDy=0;entryPerimeter=0;endArrow=oval;endFill=1;" parent="1" source="xPgT5PnDOvT7ALuy77IA-33" edge="1">
          <mxGeometry relative="1" as="geometry">
            <mxPoint x="811" y="399.99" as="targetPoint" />
          </mxGeometry>
        </mxCell>
        <mxCell id="xPgT5PnDOvT7ALuy77IA-66" style="edgeStyle=orthogonalEdgeStyle;orthogonalLoop=1;jettySize=auto;html=1;exitX=1;exitY=1;exitDx=0;exitDy=0;entryX=0;entryY=1.167;entryDx=0;entryDy=0;entryPerimeter=0;endArrow=oval;endFill=0;" parent="1" source="xPgT5PnDOvT7ALuy77IA-33" edge="1">
          <mxGeometry relative="1" as="geometry">
            <mxPoint x="810" y="440.01" as="targetPoint" />
          </mxGeometry>
        </mxCell>
        <mxCell id="vuHLS6gSeuGzEU6-2qEv-36" style="edgeStyle=orthogonalEdgeStyle;rounded=0;orthogonalLoop=1;jettySize=auto;html=1;exitX=0;exitY=0;exitDx=0;exitDy=0;endArrow=oval;endFill=0;" parent="1" source="xPgT5PnDOvT7ALuy77IA-33" edge="1">
          <mxGeometry relative="1" as="geometry">
            <mxPoint x="650" y="400" as="targetPoint" />
          </mxGeometry>
        </mxCell>
        <mxCell id="vuHLS6gSeuGzEU6-2qEv-37" style="edgeStyle=orthogonalEdgeStyle;rounded=0;orthogonalLoop=1;jettySize=auto;html=1;exitX=0;exitY=0.5;exitDx=0;exitDy=0;endArrow=oval;endFill=0;" parent="1" source="xPgT5PnDOvT7ALuy77IA-33" edge="1">
          <mxGeometry relative="1" as="geometry">
            <mxPoint x="650" y="420" as="targetPoint" />
          </mxGeometry>
        </mxCell>
        <mxCell id="vuHLS6gSeuGzEU6-2qEv-38" style="edgeStyle=orthogonalEdgeStyle;rounded=0;orthogonalLoop=1;jettySize=auto;html=1;exitX=0;exitY=1;exitDx=0;exitDy=0;endArrow=oval;endFill=0;" parent="1" source="xPgT5PnDOvT7ALuy77IA-33" edge="1">
          <mxGeometry relative="1" as="geometry">
            <mxPoint x="650" y="440" as="targetPoint" />
          </mxGeometry>
        </mxCell>
        <mxCell id="xPgT5PnDOvT7ALuy77IA-33" value="Storia" style="whiteSpace=wrap;html=1;align=center;" parent="1" vertex="1">
          <mxGeometry x="680" y="400" width="100" height="40" as="geometry" />
        </mxCell>
        <mxCell id="xPgT5PnDOvT7ALuy77IA-143" style="edgeStyle=orthogonalEdgeStyle;orthogonalLoop=1;jettySize=auto;html=1;exitX=0;exitY=1;exitDx=0;exitDy=0;entryX=0.975;entryY=0.5;entryDx=0;entryDy=0;entryPerimeter=0;endArrow=oval;endFill=0;" parent="1" source="xPgT5PnDOvT7ALuy77IA-35" target="xPgT5PnDOvT7ALuy77IA-137" edge="1">
          <mxGeometry relative="1" as="geometry" />
        </mxCell>
        <mxCell id="xPgT5PnDOvT7ALuy77IA-144" style="edgeStyle=orthogonalEdgeStyle;orthogonalLoop=1;jettySize=auto;html=1;exitX=0;exitY=0;exitDx=0;exitDy=0;endArrow=oval;endFill=0;" parent="1" source="xPgT5PnDOvT7ALuy77IA-35" target="xPgT5PnDOvT7ALuy77IA-134" edge="1">
          <mxGeometry relative="1" as="geometry" />
        </mxCell>
        <mxCell id="ToJ0KxTHSLMnMgMTQ5sD-40" style="edgeStyle=orthogonalEdgeStyle;rounded=1;orthogonalLoop=1;jettySize=auto;html=1;exitX=0.5;exitY=0;exitDx=0;exitDy=0;entryX=1;entryY=0.75;entryDx=0;entryDy=0;endArrow=none;endFill=0;" parent="1" source="xPgT5PnDOvT7ALuy77IA-35" target="xPgT5PnDOvT7ALuy77IA-1" edge="1">
          <mxGeometry relative="1" as="geometry" />
        </mxCell>
        <mxCell id="xPgT5PnDOvT7ALuy77IA-35" value="Interazione" style="shape=rhombus;perimeter=rhombusPerimeter;whiteSpace=wrap;html=1;align=center;" parent="1" vertex="1">
          <mxGeometry x="580" y="220" width="120" height="60" as="geometry" />
        </mxCell>
        <mxCell id="xPgT5PnDOvT7ALuy77IA-36" value="Creazione" style="shape=rhombus;perimeter=rhombusPerimeter;whiteSpace=wrap;html=1;align=center;" parent="1" vertex="1">
          <mxGeometry x="760" y="220" width="120" height="60" as="geometry" />
        </mxCell>
        <mxCell id="xPgT5PnDOvT7ALuy77IA-59" value="titolo" style="text;html=1;align=center;verticalAlign=middle;resizable=0;points=[];autosize=1;strokeColor=none;fillColor=none;" parent="1" vertex="1">
          <mxGeometry x="600" y="430" width="50" height="30" as="geometry" />
        </mxCell>
        <mxCell id="xPgT5PnDOvT7ALuy77IA-61" value="timestamp inizio" style="text;html=1;align=center;verticalAlign=middle;resizable=0;points=[];autosize=1;strokeColor=none;fillColor=none;" parent="1" vertex="1">
          <mxGeometry x="810" y="430" width="110" height="30" as="geometry" />
        </mxCell>
        <mxCell id="xPgT5PnDOvT7ALuy77IA-67" value="timestamp fine" style="text;html=1;align=center;verticalAlign=middle;resizable=0;points=[];autosize=1;strokeColor=none;fillColor=none;" parent="1" vertex="1">
          <mxGeometry x="810" y="405" width="100" height="30" as="geometry" />
        </mxCell>
        <mxCell id="xPgT5PnDOvT7ALuy77IA-69" value="ID" style="text;html=1;align=center;verticalAlign=middle;resizable=0;points=[];autosize=1;strokeColor=none;fillColor=none;" parent="1" vertex="1">
          <mxGeometry x="810" y="388" width="40" height="30" as="geometry" />
        </mxCell>
        <mxCell id="xPgT5PnDOvT7ALuy77IA-71" value="email" style="text;html=1;strokeColor=none;fillColor=none;align=center;verticalAlign=middle;whiteSpace=wrap;rounded=0;" parent="1" vertex="1">
          <mxGeometry x="395" y="-100" width="60" height="30" as="geometry" />
        </mxCell>
        <mxCell id="xPgT5PnDOvT7ALuy77IA-74" value="cognome" style="text;html=1;strokeColor=none;fillColor=none;align=center;verticalAlign=middle;whiteSpace=wrap;rounded=0;" parent="1" vertex="1">
          <mxGeometry x="450" y="-80" width="60" height="30" as="geometry" />
        </mxCell>
        <mxCell id="xPgT5PnDOvT7ALuy77IA-77" value="data nascita" style="text;html=1;strokeColor=none;fillColor=none;align=center;verticalAlign=middle;whiteSpace=wrap;rounded=0;" parent="1" vertex="1">
          <mxGeometry x="350" y="-80" width="60" height="30" as="geometry" />
        </mxCell>
        <mxCell id="xPgT5PnDOvT7ALuy77IA-85" value="is_suspended" style="text;html=1;align=center;verticalAlign=middle;resizable=0;points=[];autosize=1;strokeColor=none;fillColor=none;" parent="1" vertex="1">
          <mxGeometry x="495" y="-30" width="100" height="30" as="geometry" />
        </mxCell>
        <mxCell id="xPgT5PnDOvT7ALuy77IA-90" value="genere" style="text;html=1;align=center;verticalAlign=middle;resizable=0;points=[];autosize=1;strokeColor=none;fillColor=none;" parent="1" vertex="1">
          <mxGeometry x="320" y="-50" width="60" height="30" as="geometry" />
        </mxCell>
        <mxCell id="xPgT5PnDOvT7ALuy77IA-102" style="edgeStyle=orthogonalEdgeStyle;orthogonalLoop=1;jettySize=auto;html=1;exitX=0.5;exitY=1;exitDx=0;exitDy=0;endArrow=oval;endFill=1;" parent="1" source="xPgT5PnDOvT7ALuy77IA-93" target="xPgT5PnDOvT7ALuy77IA-100" edge="1">
          <mxGeometry relative="1" as="geometry" />
        </mxCell>
        <mxCell id="xPgT5PnDOvT7ALuy77IA-107" style="edgeStyle=orthogonalEdgeStyle;orthogonalLoop=1;jettySize=auto;html=1;exitX=0.75;exitY=1;exitDx=0;exitDy=0;entryX=0.333;entryY=0.067;entryDx=0;entryDy=0;entryPerimeter=0;endArrow=oval;endFill=0;" parent="1" source="xPgT5PnDOvT7ALuy77IA-93" target="xPgT5PnDOvT7ALuy77IA-104" edge="1">
          <mxGeometry relative="1" as="geometry" />
        </mxCell>
        <mxCell id="N8AgUgDqjwciJ4pxILRv-21" style="edgeStyle=orthogonalEdgeStyle;rounded=0;orthogonalLoop=1;jettySize=auto;html=1;exitX=0.25;exitY=1;exitDx=0;exitDy=0;endArrow=oval;endFill=0;" parent="1" source="xPgT5PnDOvT7ALuy77IA-93" edge="1">
          <mxGeometry relative="1" as="geometry">
            <mxPoint x="125" y="308" as="targetPoint" />
          </mxGeometry>
        </mxCell>
        <mxCell id="xPgT5PnDOvT7ALuy77IA-93" value="Gruppo" style="whiteSpace=wrap;html=1;align=center;" parent="1" vertex="1">
          <mxGeometry x="100" y="248" width="100" height="40" as="geometry" />
        </mxCell>
        <mxCell id="ToJ0KxTHSLMnMgMTQ5sD-47" style="edgeStyle=orthogonalEdgeStyle;rounded=1;orthogonalLoop=1;jettySize=auto;html=1;exitX=0.5;exitY=0;exitDx=0;exitDy=0;entryX=0;entryY=0.75;entryDx=0;entryDy=0;endArrow=none;endFill=0;" parent="1" source="xPgT5PnDOvT7ALuy77IA-94" target="xPgT5PnDOvT7ALuy77IA-1" edge="1">
          <mxGeometry relative="1" as="geometry" />
        </mxCell>
        <mxCell id="vuHLS6gSeuGzEU6-2qEv-63" style="edgeStyle=orthogonalEdgeStyle;rounded=0;orthogonalLoop=1;jettySize=auto;html=1;exitX=0.5;exitY=1;exitDx=0;exitDy=0;endArrow=none;endFill=0;" parent="1" source="xPgT5PnDOvT7ALuy77IA-94" target="xPgT5PnDOvT7ALuy77IA-93" edge="1">
          <mxGeometry relative="1" as="geometry" />
        </mxCell>
        <mxCell id="xPgT5PnDOvT7ALuy77IA-94" value="Appartenenza" style="shape=rhombus;perimeter=rhombusPerimeter;whiteSpace=wrap;html=1;align=center;" parent="1" vertex="1">
          <mxGeometry x="90" y="41" width="120" height="60" as="geometry" />
        </mxCell>
        <mxCell id="xPgT5PnDOvT7ALuy77IA-100" value="nome_gruppo" style="text;html=1;align=center;verticalAlign=middle;resizable=0;points=[];autosize=1;strokeColor=none;fillColor=none;" parent="1" vertex="1">
          <mxGeometry x="100" y="328" width="100" height="30" as="geometry" />
        </mxCell>
        <mxCell id="xPgT5PnDOvT7ALuy77IA-104" value="supervisore" style="text;html=1;align=center;verticalAlign=middle;resizable=0;points=[];autosize=1;strokeColor=none;fillColor=none;" parent="1" vertex="1">
          <mxGeometry x="145" y="306" width="90" height="30" as="geometry" />
        </mxCell>
        <mxCell id="xPgT5PnDOvT7ALuy77IA-132" style="edgeStyle=orthogonalEdgeStyle;orthogonalLoop=1;jettySize=auto;html=1;exitX=0;exitY=0.5;exitDx=0;exitDy=0;entryX=1;entryY=0.5;entryDx=0;entryDy=0;endArrow=none;endFill=0;" parent="1" source="xPgT5PnDOvT7ALuy77IA-126" target="xPgT5PnDOvT7ALuy77IA-128" edge="1">
          <mxGeometry relative="1" as="geometry" />
        </mxCell>
        <mxCell id="xPgT5PnDOvT7ALuy77IA-153" style="edgeStyle=orthogonalEdgeStyle;orthogonalLoop=1;jettySize=auto;html=1;exitX=0.5;exitY=1;exitDx=0;exitDy=0;entryX=0.5;entryY=-0.133;entryDx=0;entryDy=0;entryPerimeter=0;endArrow=oval;endFill=1;" parent="1" source="xPgT5PnDOvT7ALuy77IA-126" target="xPgT5PnDOvT7ALuy77IA-152" edge="1">
          <mxGeometry relative="1" as="geometry" />
        </mxCell>
        <mxCell id="xPgT5PnDOvT7ALuy77IA-175" style="edgeStyle=orthogonalEdgeStyle;orthogonalLoop=1;jettySize=auto;html=1;exitX=0.25;exitY=1;exitDx=0;exitDy=0;endArrow=oval;endFill=0;" parent="1" source="xPgT5PnDOvT7ALuy77IA-126" target="xPgT5PnDOvT7ALuy77IA-173" edge="1">
          <mxGeometry relative="1" as="geometry" />
        </mxCell>
        <mxCell id="xPgT5PnDOvT7ALuy77IA-184" style="edgeStyle=orthogonalEdgeStyle;orthogonalLoop=1;jettySize=auto;html=1;exitX=1;exitY=0.5;exitDx=0;exitDy=0;endArrow=oval;endFill=0;" parent="1" source="xPgT5PnDOvT7ALuy77IA-126" target="xPgT5PnDOvT7ALuy77IA-182" edge="1">
          <mxGeometry relative="1" as="geometry" />
        </mxCell>
        <mxCell id="7fZDvBcq9apVhcmprUjK-7" style="edgeStyle=orthogonalEdgeStyle;rounded=0;orthogonalLoop=1;jettySize=auto;html=1;exitX=0.75;exitY=1;exitDx=0;exitDy=0;endArrow=oval;endFill=0;" parent="1" source="xPgT5PnDOvT7ALuy77IA-126" target="xPgT5PnDOvT7ALuy77IA-189" edge="1">
          <mxGeometry relative="1" as="geometry" />
        </mxCell>
        <mxCell id="7fZDvBcq9apVhcmprUjK-12" style="edgeStyle=orthogonalEdgeStyle;rounded=0;orthogonalLoop=1;jettySize=auto;html=1;exitX=1;exitY=1;exitDx=0;exitDy=0;endArrow=oval;endFill=0;" parent="1" source="xPgT5PnDOvT7ALuy77IA-126" edge="1">
          <mxGeometry relative="1" as="geometry">
            <mxPoint x="810" y="810" as="targetPoint" />
          </mxGeometry>
        </mxCell>
        <mxCell id="dZsve7TQVurMC7eV8ZrO-21" style="edgeStyle=orthogonalEdgeStyle;rounded=0;orthogonalLoop=1;jettySize=auto;html=1;exitX=0.5;exitY=0;exitDx=0;exitDy=0;entryX=0.5;entryY=1;entryDx=0;entryDy=0;endArrow=none;endFill=0;" edge="1" parent="1" source="xPgT5PnDOvT7ALuy77IA-126" target="dZsve7TQVurMC7eV8ZrO-15">
          <mxGeometry relative="1" as="geometry" />
        </mxCell>
        <mxCell id="dZsve7TQVurMC7eV8ZrO-22" style="edgeStyle=orthogonalEdgeStyle;rounded=0;orthogonalLoop=1;jettySize=auto;html=1;exitX=1;exitY=0;exitDx=0;exitDy=0;endArrow=oval;endFill=0;" edge="1" parent="1" source="xPgT5PnDOvT7ALuy77IA-126">
          <mxGeometry relative="1" as="geometry">
            <mxPoint x="810" y="770" as="targetPoint" />
          </mxGeometry>
        </mxCell>
        <mxCell id="dZsve7TQVurMC7eV8ZrO-76" style="edgeStyle=orthogonalEdgeStyle;rounded=0;orthogonalLoop=1;jettySize=auto;html=1;exitX=0.25;exitY=0;exitDx=0;exitDy=0;endArrow=oval;endFill=0;" edge="1" parent="1" source="xPgT5PnDOvT7ALuy77IA-126">
          <mxGeometry relative="1" as="geometry">
            <mxPoint x="705.0689655172414" y="750" as="targetPoint" />
          </mxGeometry>
        </mxCell>
        <mxCell id="xPgT5PnDOvT7ALuy77IA-126" value="Opera" style="whiteSpace=wrap;html=1;align=center;" parent="1" vertex="1">
          <mxGeometry x="680" y="770" width="100" height="40" as="geometry" />
        </mxCell>
        <mxCell id="xPgT5PnDOvT7ALuy77IA-133" style="edgeStyle=orthogonalEdgeStyle;orthogonalLoop=1;jettySize=auto;html=1;exitX=0;exitY=0.5;exitDx=0;exitDy=0;entryX=1;entryY=0.5;entryDx=0;entryDy=0;endArrow=none;endFill=0;" parent="1" source="xPgT5PnDOvT7ALuy77IA-128" edge="1">
          <mxGeometry relative="1" as="geometry">
            <mxPoint x="400" y="790" as="targetPoint" />
          </mxGeometry>
        </mxCell>
        <mxCell id="xPgT5PnDOvT7ALuy77IA-128" value="Realizzazione" style="shape=rhombus;perimeter=rhombusPerimeter;whiteSpace=wrap;html=1;align=center;" parent="1" vertex="1">
          <mxGeometry x="480" y="760" width="120" height="60" as="geometry" />
        </mxCell>
        <mxCell id="xPgT5PnDOvT7ALuy77IA-134" value="rating" style="text;html=1;align=center;verticalAlign=middle;resizable=0;points=[];autosize=1;strokeColor=none;fillColor=none;" parent="1" vertex="1">
          <mxGeometry x="510" y="220" width="50" height="30" as="geometry" />
        </mxCell>
        <mxCell id="xPgT5PnDOvT7ALuy77IA-137" value="commento" style="text;html=1;align=center;verticalAlign=middle;resizable=0;points=[];autosize=1;strokeColor=none;fillColor=none;" parent="1" vertex="1">
          <mxGeometry x="480" y="250" width="80" height="30" as="geometry" />
        </mxCell>
        <mxCell id="dZsve7TQVurMC7eV8ZrO-18" style="edgeStyle=orthogonalEdgeStyle;rounded=1;orthogonalLoop=1;jettySize=auto;html=1;exitX=0;exitY=0.5;exitDx=0;exitDy=0;entryX=0;entryY=1;entryDx=0;entryDy=0;endArrow=none;endFill=0;" edge="1" parent="1" source="xPgT5PnDOvT7ALuy77IA-145" target="xPgT5PnDOvT7ALuy77IA-126">
          <mxGeometry relative="1" as="geometry">
            <Array as="points">
              <mxPoint x="170" y="388" />
              <mxPoint x="170" y="910" />
              <mxPoint x="680" y="910" />
            </Array>
          </mxGeometry>
        </mxCell>
        <mxCell id="xPgT5PnDOvT7ALuy77IA-145" value="Aggiunta" style="shape=rhombus;perimeter=rhombusPerimeter;whiteSpace=wrap;html=1;align=center;" parent="1" vertex="1">
          <mxGeometry x="390" y="358" width="120" height="60" as="geometry" />
        </mxCell>
        <mxCell id="xPgT5PnDOvT7ALuy77IA-152" value="codice" style="text;html=1;align=center;verticalAlign=middle;resizable=0;points=[];autosize=1;strokeColor=none;fillColor=none;" parent="1" vertex="1">
          <mxGeometry x="700" y="850" width="60" height="30" as="geometry" />
        </mxCell>
        <mxCell id="xPgT5PnDOvT7ALuy77IA-155" value="nome" style="text;html=1;align=center;verticalAlign=middle;resizable=0;points=[];autosize=1;strokeColor=none;fillColor=none;" parent="1" vertex="1">
          <mxGeometry x="275" y="830" width="50" height="30" as="geometry" />
        </mxCell>
        <mxCell id="xPgT5PnDOvT7ALuy77IA-163" style="edgeStyle=orthogonalEdgeStyle;orthogonalLoop=1;jettySize=auto;html=1;exitX=0.5;exitY=1;exitDx=0;exitDy=0;entryX=0.5;entryY=-0.133;entryDx=0;entryDy=0;entryPerimeter=0;endArrow=oval;endFill=1;" parent="1" source="xPgT5PnDOvT7ALuy77IA-167" target="xPgT5PnDOvT7ALuy77IA-168" edge="1">
          <mxGeometry relative="1" as="geometry" />
        </mxCell>
        <mxCell id="xPgT5PnDOvT7ALuy77IA-164" style="edgeStyle=orthogonalEdgeStyle;orthogonalLoop=1;jettySize=auto;html=1;exitX=0;exitY=1;exitDx=0;exitDy=0;endArrow=oval;endFill=0;" parent="1" source="xPgT5PnDOvT7ALuy77IA-167" edge="1">
          <mxGeometry relative="1" as="geometry">
            <mxPoint x="300" y="830" as="targetPoint" />
            <Array as="points">
              <mxPoint x="300" y="820" />
              <mxPoint x="300" y="820" />
            </Array>
          </mxGeometry>
        </mxCell>
        <mxCell id="Sdq_FZ68KuRAV6YPq1nK-8" style="edgeStyle=orthogonalEdgeStyle;rounded=0;orthogonalLoop=1;jettySize=auto;html=1;exitX=0;exitY=0;exitDx=0;exitDy=0;endArrow=oval;endFill=0;" parent="1" source="xPgT5PnDOvT7ALuy77IA-167" edge="1">
          <mxGeometry relative="1" as="geometry">
            <mxPoint x="270" y="770" as="targetPoint" />
          </mxGeometry>
        </mxCell>
        <mxCell id="Sdq_FZ68KuRAV6YPq1nK-9" style="edgeStyle=orthogonalEdgeStyle;rounded=0;orthogonalLoop=1;jettySize=auto;html=1;exitX=0;exitY=1;exitDx=0;exitDy=0;endArrow=oval;endFill=0;" parent="1" source="xPgT5PnDOvT7ALuy77IA-167" edge="1">
          <mxGeometry relative="1" as="geometry">
            <mxPoint x="270" y="810" as="targetPoint" />
          </mxGeometry>
        </mxCell>
        <mxCell id="Sdq_FZ68KuRAV6YPq1nK-12" style="edgeStyle=orthogonalEdgeStyle;rounded=0;orthogonalLoop=1;jettySize=auto;html=1;exitX=1;exitY=1;exitDx=0;exitDy=0;endArrow=oval;endFill=0;" parent="1" source="xPgT5PnDOvT7ALuy77IA-167" target="Sdq_FZ68KuRAV6YPq1nK-11" edge="1">
          <mxGeometry relative="1" as="geometry" />
        </mxCell>
        <mxCell id="xPgT5PnDOvT7ALuy77IA-167" value="Autore" style="whiteSpace=wrap;html=1;align=center;" parent="1" vertex="1">
          <mxGeometry x="300" y="770" width="100" height="40" as="geometry" />
        </mxCell>
        <mxCell id="xPgT5PnDOvT7ALuy77IA-168" value="cognome" style="text;html=1;align=center;verticalAlign=middle;resizable=0;points=[];autosize=1;strokeColor=none;fillColor=none;" parent="1" vertex="1">
          <mxGeometry x="315" y="860" width="70" height="30" as="geometry" />
        </mxCell>
        <mxCell id="xPgT5PnDOvT7ALuy77IA-169" value="data morte" style="text;html=1;align=center;verticalAlign=middle;resizable=0;points=[];autosize=1;strokeColor=none;fillColor=none;" parent="1" vertex="1">
          <mxGeometry x="195" y="800" width="80" height="30" as="geometry" />
        </mxCell>
        <mxCell id="xPgT5PnDOvT7ALuy77IA-170" value="data nascita" style="text;html=1;align=center;verticalAlign=middle;resizable=0;points=[];autosize=1;strokeColor=none;fillColor=none;" parent="1" vertex="1">
          <mxGeometry x="180" y="760" width="90" height="30" as="geometry" />
        </mxCell>
        <mxCell id="xPgT5PnDOvT7ALuy77IA-173" value="titolo" style="text;html=1;align=center;verticalAlign=middle;resizable=0;points=[];autosize=1;strokeColor=none;fillColor=none;" parent="1" vertex="1">
          <mxGeometry x="680" y="830" width="50" height="30" as="geometry" />
        </mxCell>
        <mxCell id="xPgT5PnDOvT7ALuy77IA-182" value="materiale" style="text;html=1;align=center;verticalAlign=middle;resizable=0;points=[];autosize=1;strokeColor=none;fillColor=none;" parent="1" vertex="1">
          <mxGeometry x="820" y="775" width="70" height="30" as="geometry" />
        </mxCell>
        <mxCell id="xPgT5PnDOvT7ALuy77IA-189" value="anno" style="text;html=1;align=center;verticalAlign=middle;resizable=0;points=[];autosize=1;strokeColor=none;fillColor=none;" parent="1" vertex="1">
          <mxGeometry x="730" y="830" width="50" height="30" as="geometry" />
        </mxCell>
        <mxCell id="vuHLS6gSeuGzEU6-2qEv-64" style="edgeStyle=orthogonalEdgeStyle;rounded=1;orthogonalLoop=1;jettySize=auto;html=1;exitX=0.5;exitY=1;exitDx=0;exitDy=0;entryX=1;entryY=0.5;entryDx=0;entryDy=0;endArrow=none;endFill=0;" parent="1" source="xPgT5PnDOvT7ALuy77IA-196" target="xPgT5PnDOvT7ALuy77IA-93" edge="1">
          <mxGeometry relative="1" as="geometry" />
        </mxCell>
        <mxCell id="5WeZh3xRnHgpVQKe2VsU-16" style="edgeStyle=orthogonalEdgeStyle;rounded=0;orthogonalLoop=1;jettySize=auto;html=1;exitX=0;exitY=1;exitDx=0;exitDy=0;endArrow=oval;endFill=0;" parent="1" source="xPgT5PnDOvT7ALuy77IA-196" target="5WeZh3xRnHgpVQKe2VsU-12" edge="1">
          <mxGeometry relative="1" as="geometry" />
        </mxCell>
        <mxCell id="5WeZh3xRnHgpVQKe2VsU-17" style="edgeStyle=orthogonalEdgeStyle;rounded=0;orthogonalLoop=1;jettySize=auto;html=1;exitX=0;exitY=0;exitDx=0;exitDy=0;endArrow=oval;endFill=0;" parent="1" source="xPgT5PnDOvT7ALuy77IA-196" target="5WeZh3xRnHgpVQKe2VsU-11" edge="1">
          <mxGeometry relative="1" as="geometry" />
        </mxCell>
        <mxCell id="xPgT5PnDOvT7ALuy77IA-196" value="Organizzazione" style="shape=rhombus;perimeter=rhombusPerimeter;whiteSpace=wrap;html=1;align=center;" parent="1" vertex="1">
          <mxGeometry x="315" y="163" width="120" height="60" as="geometry" />
        </mxCell>
        <mxCell id="ToJ0KxTHSLMnMgMTQ5sD-7" value="(1,1)" style="text;html=1;align=center;verticalAlign=middle;resizable=0;points=[];autosize=1;strokeColor=none;fillColor=none;" parent="1" vertex="1">
          <mxGeometry x="820" y="290" width="50" height="30" as="geometry" />
        </mxCell>
        <mxCell id="ToJ0KxTHSLMnMgMTQ5sD-8" value="(1,1)" style="text;html=1;align=center;verticalAlign=middle;resizable=0;points=[];autosize=1;strokeColor=none;fillColor=none;" parent="1" vertex="1">
          <mxGeometry x="640" y="290" width="50" height="30" as="geometry" />
        </mxCell>
        <mxCell id="ToJ0KxTHSLMnMgMTQ5sD-9" value="(0,N)" style="text;html=1;align=center;verticalAlign=middle;resizable=0;points=[];autosize=1;strokeColor=none;fillColor=none;" parent="1" vertex="1">
          <mxGeometry x="820" y="165" width="50" height="30" as="geometry" />
        </mxCell>
        <mxCell id="ToJ0KxTHSLMnMgMTQ5sD-10" value="(0,N)" style="text;html=1;align=center;verticalAlign=middle;resizable=0;points=[];autosize=1;strokeColor=none;fillColor=none;" parent="1" vertex="1">
          <mxGeometry x="640" y="165" width="50" height="30" as="geometry" />
        </mxCell>
        <mxCell id="ToJ0KxTHSLMnMgMTQ5sD-11" value="(1,N)" style="text;html=1;align=center;verticalAlign=middle;resizable=0;points=[];autosize=1;strokeColor=none;fillColor=none;" parent="1" vertex="1">
          <mxGeometry x="420" y="760" width="50" height="30" as="geometry" />
        </mxCell>
        <mxCell id="ToJ0KxTHSLMnMgMTQ5sD-12" value="(1,N)" style="text;html=1;align=center;verticalAlign=middle;resizable=0;points=[];autosize=1;strokeColor=none;fillColor=none;" parent="1" vertex="1">
          <mxGeometry x="600" y="760" width="50" height="30" as="geometry" />
        </mxCell>
        <mxCell id="ToJ0KxTHSLMnMgMTQ5sD-14" value="(0,N)" style="text;html=1;align=center;verticalAlign=middle;resizable=0;points=[];autosize=1;strokeColor=none;fillColor=none;" parent="1" vertex="1">
          <mxGeometry x="445" y="180" width="50" height="30" as="geometry" />
        </mxCell>
        <mxCell id="ToJ0KxTHSLMnMgMTQ5sD-17" value="(1,1)" style="text;html=1;align=center;verticalAlign=middle;resizable=0;points=[];autosize=1;strokeColor=none;fillColor=none;" parent="1" vertex="1">
          <mxGeometry x="240" y="238" width="50" height="30" as="geometry" />
        </mxCell>
        <mxCell id="ToJ0KxTHSLMnMgMTQ5sD-18" value="(1,N)" style="text;html=1;align=center;verticalAlign=middle;resizable=0;points=[];autosize=1;strokeColor=none;fillColor=none;" parent="1" vertex="1">
          <mxGeometry x="370" y="83" width="50" height="30" as="geometry" />
        </mxCell>
        <mxCell id="ToJ0KxTHSLMnMgMTQ5sD-19" value="(1,N)" style="text;html=1;align=center;verticalAlign=middle;resizable=0;points=[];autosize=1;strokeColor=none;fillColor=none;" parent="1" vertex="1">
          <mxGeometry x="145" y="148" width="50" height="30" as="geometry" />
        </mxCell>
        <mxCell id="ToJ0KxTHSLMnMgMTQ5sD-20" value="(0,N)" style="text;html=1;align=center;verticalAlign=middle;resizable=0;points=[];autosize=1;strokeColor=none;fillColor=none;" parent="1" vertex="1">
          <mxGeometry x="195" y="-10" width="50" height="30" as="geometry" />
        </mxCell>
        <mxCell id="QaUOSZqgRzFo-ZK52Xam-1" value="is_public" style="text;html=1;align=center;verticalAlign=middle;resizable=0;points=[];autosize=1;strokeColor=none;fillColor=none;" parent="1" vertex="1">
          <mxGeometry x="580" y="405" width="70" height="30" as="geometry" />
        </mxCell>
        <mxCell id="Sdq_FZ68KuRAV6YPq1nK-1" value="is_online" style="text;html=1;align=center;verticalAlign=middle;resizable=0;points=[];autosize=1;strokeColor=none;fillColor=none;" parent="1" vertex="1">
          <mxGeometry x="280" y="-30" width="70" height="30" as="geometry" />
        </mxCell>
        <mxCell id="Sdq_FZ68KuRAV6YPq1nK-5" value="nome" style="text;html=1;align=center;verticalAlign=middle;resizable=0;points=[];autosize=1;strokeColor=none;fillColor=none;" parent="1" vertex="1">
          <mxGeometry x="450" y="-60" width="50" height="30" as="geometry" />
        </mxCell>
        <mxCell id="Sdq_FZ68KuRAV6YPq1nK-11" value="movimento artistico" style="text;html=1;align=center;verticalAlign=middle;resizable=0;points=[];autosize=1;strokeColor=none;fillColor=none;" parent="1" vertex="1">
          <mxGeometry x="335" y="830" width="130" height="30" as="geometry" />
        </mxCell>
        <mxCell id="vuHLS6gSeuGzEU6-2qEv-1" value="commento_personale" style="text;html=1;align=center;verticalAlign=middle;resizable=0;points=[];autosize=1;strokeColor=none;fillColor=none;" parent="1" vertex="1">
          <mxGeometry x="510" y="385" width="140" height="30" as="geometry" />
        </mxCell>
        <mxCell id="vuHLS6gSeuGzEU6-2qEv-46" value="(1,1)" style="text;html=1;align=center;verticalAlign=middle;resizable=0;points=[];autosize=1;strokeColor=none;fillColor=none;" parent="1" vertex="1">
          <mxGeometry x="165" y="660" width="50" height="30" as="geometry" />
        </mxCell>
        <mxCell id="vuHLS6gSeuGzEU6-2qEv-47" value="(2,3)" style="text;html=1;align=center;verticalAlign=middle;resizable=0;points=[];autosize=1;strokeColor=none;fillColor=none;" parent="1" vertex="1">
          <mxGeometry x="720" y="450" width="50" height="30" as="geometry" />
        </mxCell>
        <mxCell id="N8AgUgDqjwciJ4pxILRv-4" value="tipologia" style="text;html=1;align=center;verticalAlign=middle;resizable=0;points=[];autosize=1;strokeColor=none;fillColor=none;" parent="1" vertex="1">
          <mxGeometry x="275" y="-10" width="70" height="30" as="geometry" />
        </mxCell>
        <mxCell id="N8AgUgDqjwciJ4pxILRv-22" value="creatore" style="text;html=1;align=center;verticalAlign=middle;resizable=0;points=[];autosize=1;strokeColor=none;fillColor=none;" parent="1" vertex="1">
          <mxGeometry x="90" y="303" width="70" height="30" as="geometry" />
        </mxCell>
        <mxCell id="7fZDvBcq9apVhcmprUjK-13" value="descrizione" style="text;html=1;align=center;verticalAlign=middle;resizable=0;points=[];autosize=1;strokeColor=none;fillColor=none;" parent="1" vertex="1">
          <mxGeometry x="805" y="800" width="80" height="30" as="geometry" />
        </mxCell>
        <mxCell id="7fZDvBcq9apVhcmprUjK-20" value="(1,1)" style="text;html=1;align=center;verticalAlign=middle;resizable=0;points=[];autosize=1;strokeColor=none;fillColor=none;" parent="1" vertex="1">
          <mxGeometry x="720" y="650" width="50" height="30" as="geometry" />
        </mxCell>
        <mxCell id="5WeZh3xRnHgpVQKe2VsU-11" value="supervisore" style="text;html=1;align=center;verticalAlign=middle;resizable=0;points=[];autosize=1;strokeColor=none;fillColor=none;" parent="1" vertex="1">
          <mxGeometry x="200" y="163" width="90" height="30" as="geometry" />
        </mxCell>
        <mxCell id="5WeZh3xRnHgpVQKe2VsU-12" value="creatore" style="text;html=1;align=center;verticalAlign=middle;resizable=0;points=[];autosize=1;strokeColor=none;fillColor=none;" parent="1" vertex="1">
          <mxGeometry x="220" y="195" width="70" height="30" as="geometry" />
        </mxCell>
        <mxCell id="iASCvrhurdKjaq_ZEi8B-1" value="(0,N)" style="text;html=1;align=center;verticalAlign=middle;resizable=0;points=[];autosize=1;strokeColor=none;fillColor=none;" parent="1" vertex="1">
          <mxGeometry x="950" y="163" width="50" height="30" as="geometry" />
        </mxCell>
        <mxCell id="dZsve7TQVurMC7eV8ZrO-1" style="edgeStyle=orthogonalEdgeStyle;rounded=0;orthogonalLoop=1;jettySize=auto;html=1;exitX=0;exitY=0;exitDx=0;exitDy=0;endArrow=oval;endFill=0;" edge="1" parent="1" target="dZsve7TQVurMC7eV8ZrO-4">
          <mxGeometry relative="1" as="geometry">
            <mxPoint x="700" y="605" as="sourcePoint" />
          </mxGeometry>
        </mxCell>
        <mxCell id="dZsve7TQVurMC7eV8ZrO-2" style="edgeStyle=orthogonalEdgeStyle;rounded=0;orthogonalLoop=1;jettySize=auto;html=1;exitX=0;exitY=1;exitDx=0;exitDy=0;endArrow=oval;endFill=0;" edge="1" parent="1" target="dZsve7TQVurMC7eV8ZrO-5">
          <mxGeometry relative="1" as="geometry">
            <mxPoint x="700" y="635" as="sourcePoint" />
          </mxGeometry>
        </mxCell>
        <mxCell id="dZsve7TQVurMC7eV8ZrO-3" style="edgeStyle=orthogonalEdgeStyle;rounded=0;orthogonalLoop=1;jettySize=auto;html=1;exitX=1;exitY=0;exitDx=0;exitDy=0;endArrow=oval;endFill=0;" edge="1" parent="1">
          <mxGeometry relative="1" as="geometry">
            <mxPoint x="760" y="605" as="sourcePoint" />
            <mxPoint x="810" y="605" as="targetPoint" />
          </mxGeometry>
        </mxCell>
        <mxCell id="dZsve7TQVurMC7eV8ZrO-4" value="domande" style="text;html=1;align=center;verticalAlign=middle;resizable=0;points=[];autosize=1;strokeColor=none;fillColor=none;" vertex="1" parent="1">
          <mxGeometry x="575" y="590" width="70" height="30" as="geometry" />
        </mxCell>
        <mxCell id="dZsve7TQVurMC7eV8ZrO-5" value="emoji" style="text;html=1;align=center;verticalAlign=middle;resizable=0;points=[];autosize=1;strokeColor=none;fillColor=none;" vertex="1" parent="1">
          <mxGeometry x="595" y="620" width="50" height="30" as="geometry" />
        </mxCell>
        <mxCell id="dZsve7TQVurMC7eV8ZrO-6" value="hashtag" style="text;html=1;align=center;verticalAlign=middle;resizable=0;points=[];autosize=1;strokeColor=none;fillColor=none;" vertex="1" parent="1">
          <mxGeometry x="805" y="590" width="70" height="30" as="geometry" />
        </mxCell>
        <mxCell id="dZsve7TQVurMC7eV8ZrO-7" value="commento opera" style="text;html=1;align=center;verticalAlign=middle;resizable=0;points=[];autosize=1;strokeColor=none;fillColor=none;" vertex="1" parent="1">
          <mxGeometry x="535" y="605" width="110" height="30" as="geometry" />
        </mxCell>
        <mxCell id="dZsve7TQVurMC7eV8ZrO-8" style="edgeStyle=orthogonalEdgeStyle;rounded=0;orthogonalLoop=1;jettySize=auto;html=1;exitX=0.5;exitY=0;exitDx=0;exitDy=0;endArrow=none;endFill=0;entryX=0.5;entryY=1;entryDx=0;entryDy=0;" edge="1" parent="1" source="dZsve7TQVurMC7eV8ZrO-11" target="dZsve7TQVurMC7eV8ZrO-16">
          <mxGeometry relative="1" as="geometry">
            <mxPoint x="730" y="558" as="targetPoint" />
          </mxGeometry>
        </mxCell>
        <mxCell id="dZsve7TQVurMC7eV8ZrO-9" style="edgeStyle=orthogonalEdgeStyle;rounded=0;orthogonalLoop=1;jettySize=auto;html=1;exitX=0;exitY=0.5;exitDx=0;exitDy=0;endArrow=oval;endFill=0;" edge="1" parent="1" source="dZsve7TQVurMC7eV8ZrO-11" target="dZsve7TQVurMC7eV8ZrO-7">
          <mxGeometry relative="1" as="geometry" />
        </mxCell>
        <mxCell id="dZsve7TQVurMC7eV8ZrO-10" style="edgeStyle=orthogonalEdgeStyle;rounded=0;orthogonalLoop=1;jettySize=auto;html=1;exitX=0.25;exitY=0;exitDx=0;exitDy=0;endArrow=oval;endFill=1;" edge="1" parent="1" source="dZsve7TQVurMC7eV8ZrO-11">
          <mxGeometry relative="1" as="geometry">
            <mxPoint x="705" y="578" as="targetPoint" />
          </mxGeometry>
        </mxCell>
        <mxCell id="dZsve7TQVurMC7eV8ZrO-28" style="edgeStyle=orthogonalEdgeStyle;rounded=1;orthogonalLoop=1;jettySize=auto;html=1;exitX=1;exitY=0.5;exitDx=0;exitDy=0;entryX=0.5;entryY=1;entryDx=0;entryDy=0;endArrow=none;endFill=0;" edge="1" parent="1" source="dZsve7TQVurMC7eV8ZrO-11" target="dZsve7TQVurMC7eV8ZrO-26">
          <mxGeometry relative="1" as="geometry" />
        </mxCell>
        <mxCell id="dZsve7TQVurMC7eV8ZrO-11" value="Opera Annotata" style="whiteSpace=wrap;html=1;align=center;" vertex="1" parent="1">
          <mxGeometry x="680" y="600" width="100" height="40" as="geometry" />
        </mxCell>
        <mxCell id="dZsve7TQVurMC7eV8ZrO-12" value="(1,1)" style="text;html=1;align=center;verticalAlign=middle;resizable=0;points=[];autosize=1;strokeColor=none;fillColor=none;" vertex="1" parent="1">
          <mxGeometry x="720" y="550" width="50" height="30" as="geometry" />
        </mxCell>
        <mxCell id="dZsve7TQVurMC7eV8ZrO-13" value="(0,3)" style="text;html=1;align=center;verticalAlign=middle;resizable=0;points=[];autosize=1;strokeColor=none;fillColor=none;" vertex="1" parent="1">
          <mxGeometry x="635" y="575" width="50" height="30" as="geometry" />
        </mxCell>
        <mxCell id="dZsve7TQVurMC7eV8ZrO-14" value="ID" style="text;html=1;align=center;verticalAlign=middle;resizable=0;points=[];autosize=1;strokeColor=none;fillColor=none;" vertex="1" parent="1">
          <mxGeometry x="685" y="550" width="40" height="30" as="geometry" />
        </mxCell>
        <mxCell id="dZsve7TQVurMC7eV8ZrO-20" style="edgeStyle=orthogonalEdgeStyle;rounded=0;orthogonalLoop=1;jettySize=auto;html=1;exitX=0.5;exitY=0;exitDx=0;exitDy=0;endArrow=none;endFill=0;" edge="1" parent="1" source="dZsve7TQVurMC7eV8ZrO-15" target="dZsve7TQVurMC7eV8ZrO-11">
          <mxGeometry relative="1" as="geometry" />
        </mxCell>
        <mxCell id="dZsve7TQVurMC7eV8ZrO-15" value="Annotazione" style="shape=rhombus;perimeter=rhombusPerimeter;whiteSpace=wrap;html=1;align=center;" vertex="1" parent="1">
          <mxGeometry x="670" y="680" width="120" height="60" as="geometry" />
        </mxCell>
        <mxCell id="dZsve7TQVurMC7eV8ZrO-19" style="edgeStyle=orthogonalEdgeStyle;rounded=0;orthogonalLoop=1;jettySize=auto;html=1;exitX=0.5;exitY=0;exitDx=0;exitDy=0;entryX=0.5;entryY=1;entryDx=0;entryDy=0;endArrow=none;endFill=0;" edge="1" parent="1" source="dZsve7TQVurMC7eV8ZrO-16" target="xPgT5PnDOvT7ALuy77IA-33">
          <mxGeometry relative="1" as="geometry" />
        </mxCell>
        <mxCell id="dZsve7TQVurMC7eV8ZrO-16" value="Composizione" style="shape=rhombus;perimeter=rhombusPerimeter;whiteSpace=wrap;html=1;align=center;" vertex="1" parent="1">
          <mxGeometry x="670" y="480" width="120" height="60" as="geometry" />
        </mxCell>
        <mxCell id="dZsve7TQVurMC7eV8ZrO-23" value="descrizione audio" style="text;html=1;align=center;verticalAlign=middle;resizable=0;points=[];autosize=1;strokeColor=none;fillColor=none;" vertex="1" parent="1">
          <mxGeometry x="800" y="750" width="120" height="30" as="geometry" />
        </mxCell>
        <mxCell id="dZsve7TQVurMC7eV8ZrO-24" value="(0,N)" style="text;html=1;align=center;verticalAlign=middle;resizable=0;points=[];autosize=1;strokeColor=none;fillColor=none;" vertex="1" parent="1">
          <mxGeometry x="720" y="740" width="50" height="30" as="geometry" />
        </mxCell>
        <mxCell id="dZsve7TQVurMC7eV8ZrO-26" value="Riflessione" style="shape=rhombus;perimeter=rhombusPerimeter;whiteSpace=wrap;html=1;align=center;" vertex="1" parent="1">
          <mxGeometry x="890" y="345" width="120" height="60" as="geometry" />
        </mxCell>
        <mxCell id="dZsve7TQVurMC7eV8ZrO-29" value="(1,1)" style="text;html=1;align=center;verticalAlign=middle;resizable=0;points=[];autosize=1;strokeColor=none;fillColor=none;" vertex="1" parent="1">
          <mxGeometry x="950" y="468" width="50" height="30" as="geometry" />
        </mxCell>
        <mxCell id="dZsve7TQVurMC7eV8ZrO-60" style="edgeStyle=orthogonalEdgeStyle;rounded=1;orthogonalLoop=1;jettySize=auto;html=1;exitX=1;exitY=0.5;exitDx=0;exitDy=0;entryX=0.09;entryY=1;entryDx=0;entryDy=0;entryPerimeter=0;endArrow=none;endFill=0;strokeColor=default;" edge="1" parent="1" source="dZsve7TQVurMC7eV8ZrO-42" target="xPgT5PnDOvT7ALuy77IA-33">
          <mxGeometry relative="1" as="geometry" />
        </mxCell>
        <mxCell id="dZsve7TQVurMC7eV8ZrO-42" value="S-S" style="shape=rhombus;perimeter=rhombusPerimeter;whiteSpace=wrap;html=1;align=center;" vertex="1" parent="1">
          <mxGeometry x="380" y="435" width="120" height="60" as="geometry" />
        </mxCell>
        <mxCell id="dZsve7TQVurMC7eV8ZrO-61" style="edgeStyle=orthogonalEdgeStyle;rounded=1;orthogonalLoop=1;jettySize=auto;html=1;exitX=1;exitY=0.5;exitDx=0;exitDy=0;entryX=0.13;entryY=0.95;entryDx=0;entryDy=0;entryPerimeter=0;endArrow=none;endFill=0;" edge="1" parent="1" source="dZsve7TQVurMC7eV8ZrO-43" target="xPgT5PnDOvT7ALuy77IA-33">
          <mxGeometry relative="1" as="geometry">
            <Array as="points">
              <mxPoint x="500" y="480" />
              <mxPoint x="693" y="480" />
            </Array>
          </mxGeometry>
        </mxCell>
        <mxCell id="dZsve7TQVurMC7eV8ZrO-43" value="S-O" style="shape=rhombus;perimeter=rhombusPerimeter;whiteSpace=wrap;html=1;align=center;" vertex="1" parent="1">
          <mxGeometry x="380" y="515" width="120" height="60" as="geometry" />
        </mxCell>
        <mxCell id="dZsve7TQVurMC7eV8ZrO-56" style="edgeStyle=orthogonalEdgeStyle;rounded=0;orthogonalLoop=1;jettySize=auto;html=1;exitX=1;exitY=0.5;exitDx=0;exitDy=0;entryX=0;entryY=0.5;entryDx=0;entryDy=0;endArrow=none;endFill=0;" edge="1" parent="1" source="dZsve7TQVurMC7eV8ZrO-50" target="dZsve7TQVurMC7eV8ZrO-43">
          <mxGeometry relative="1" as="geometry" />
        </mxCell>
        <mxCell id="dZsve7TQVurMC7eV8ZrO-50" value="Opposta" style="whiteSpace=wrap;html=1;align=center;rounded=0;" vertex="1" parent="1">
          <mxGeometry x="240" y="525" width="100" height="40" as="geometry" />
        </mxCell>
        <mxCell id="dZsve7TQVurMC7eV8ZrO-59" style="edgeStyle=orthogonalEdgeStyle;rounded=0;orthogonalLoop=1;jettySize=auto;html=1;exitX=1;exitY=0.5;exitDx=0;exitDy=0;entryX=0;entryY=0.5;entryDx=0;entryDy=0;endArrow=none;endFill=0;" edge="1" parent="1" source="dZsve7TQVurMC7eV8ZrO-52" target="dZsve7TQVurMC7eV8ZrO-58">
          <mxGeometry relative="1" as="geometry" />
        </mxCell>
        <mxCell id="dZsve7TQVurMC7eV8ZrO-52" value="Uguale" style="whiteSpace=wrap;html=1;align=center;rounded=0;" vertex="1" parent="1">
          <mxGeometry x="240" y="605" width="100" height="40" as="geometry" />
        </mxCell>
        <mxCell id="dZsve7TQVurMC7eV8ZrO-55" style="edgeStyle=orthogonalEdgeStyle;rounded=0;orthogonalLoop=1;jettySize=auto;html=1;exitX=1;exitY=0.5;exitDx=0;exitDy=0;entryX=0;entryY=0.5;entryDx=0;entryDy=0;endArrow=none;endFill=0;" edge="1" parent="1" source="dZsve7TQVurMC7eV8ZrO-53" target="dZsve7TQVurMC7eV8ZrO-42">
          <mxGeometry relative="1" as="geometry" />
        </mxCell>
        <mxCell id="dZsve7TQVurMC7eV8ZrO-53" value="Simile" style="whiteSpace=wrap;html=1;align=center;rounded=0;" vertex="1" parent="1">
          <mxGeometry x="240" y="445" width="100" height="40" as="geometry" />
        </mxCell>
        <mxCell id="dZsve7TQVurMC7eV8ZrO-62" style="edgeStyle=orthogonalEdgeStyle;rounded=1;orthogonalLoop=1;jettySize=auto;html=1;exitX=1;exitY=0.5;exitDx=0;exitDy=0;endArrow=none;endFill=0;" edge="1" parent="1" source="dZsve7TQVurMC7eV8ZrO-58">
          <mxGeometry relative="1" as="geometry">
            <mxPoint x="700" y="440" as="targetPoint" />
            <Array as="points">
              <mxPoint x="520" y="625" />
              <mxPoint x="520" y="490" />
              <mxPoint x="700" y="490" />
            </Array>
          </mxGeometry>
        </mxCell>
        <mxCell id="dZsve7TQVurMC7eV8ZrO-58" value="S-U" style="shape=rhombus;perimeter=rhombusPerimeter;whiteSpace=wrap;html=1;align=center;" vertex="1" parent="1">
          <mxGeometry x="380" y="595" width="120" height="60" as="geometry" />
        </mxCell>
        <mxCell id="dZsve7TQVurMC7eV8ZrO-63" value="" style="endArrow=oval;html=1;rounded=0;endFill=1;" edge="1" parent="1">
          <mxGeometry width="50" height="50" relative="1" as="geometry">
            <mxPoint x="360" y="490" as="sourcePoint" />
            <mxPoint x="360" y="440" as="targetPoint" />
          </mxGeometry>
        </mxCell>
        <mxCell id="dZsve7TQVurMC7eV8ZrO-65" value="" style="endArrow=oval;html=1;rounded=0;endFill=1;" edge="1" parent="1">
          <mxGeometry width="50" height="50" relative="1" as="geometry">
            <mxPoint x="360" y="570" as="sourcePoint" />
            <mxPoint x="360" y="520" as="targetPoint" />
          </mxGeometry>
        </mxCell>
        <mxCell id="dZsve7TQVurMC7eV8ZrO-66" value="" style="endArrow=oval;html=1;rounded=0;endFill=1;" edge="1" parent="1">
          <mxGeometry width="50" height="50" relative="1" as="geometry">
            <mxPoint x="360" y="650" as="sourcePoint" />
            <mxPoint x="360" y="600" as="targetPoint" />
          </mxGeometry>
        </mxCell>
        <mxCell id="dZsve7TQVurMC7eV8ZrO-67" value="(1,1)" style="text;html=1;align=center;verticalAlign=middle;resizable=0;points=[];autosize=1;strokeColor=none;fillColor=none;" vertex="1" parent="1">
          <mxGeometry x="350" y="595" width="50" height="30" as="geometry" />
        </mxCell>
        <mxCell id="dZsve7TQVurMC7eV8ZrO-68" value="(1,1)" style="text;html=1;align=center;verticalAlign=middle;resizable=0;points=[];autosize=1;strokeColor=none;fillColor=none;" vertex="1" parent="1">
          <mxGeometry x="350" y="515" width="50" height="30" as="geometry" />
        </mxCell>
        <mxCell id="dZsve7TQVurMC7eV8ZrO-69" value="(1,1)" style="text;html=1;align=center;verticalAlign=middle;resizable=0;points=[];autosize=1;strokeColor=none;fillColor=none;" vertex="1" parent="1">
          <mxGeometry x="355" y="435" width="50" height="30" as="geometry" />
        </mxCell>
        <mxCell id="dZsve7TQVurMC7eV8ZrO-70" value="(1,N)" style="text;html=1;align=center;verticalAlign=middle;resizable=0;points=[];autosize=1;strokeColor=none;fillColor=none;" vertex="1" parent="1">
          <mxGeometry x="520" y="565" width="50" height="30" as="geometry" />
        </mxCell>
        <mxCell id="dZsve7TQVurMC7eV8ZrO-71" value="(1,N)" style="text;html=1;align=center;verticalAlign=middle;resizable=0;points=[];autosize=1;strokeColor=none;fillColor=none;" vertex="1" parent="1">
          <mxGeometry x="450" y="495" width="50" height="30" as="geometry" />
        </mxCell>
        <mxCell id="dZsve7TQVurMC7eV8ZrO-72" value="(1,N)" style="text;html=1;align=center;verticalAlign=middle;resizable=0;points=[];autosize=1;strokeColor=none;fillColor=none;" vertex="1" parent="1">
          <mxGeometry x="520" y="435" width="50" height="30" as="geometry" />
        </mxCell>
        <mxCell id="dZsve7TQVurMC7eV8ZrO-74" value="is_present" style="text;html=1;align=center;verticalAlign=middle;resizable=0;points=[];autosize=1;strokeColor=none;fillColor=none;" vertex="1" parent="1">
          <mxGeometry x="660" y="730" width="80" height="30" as="geometry" />
        </mxCell>
      </root>
    </mxGraphModel>
  </diagram>
</mxfile>
